<svg width="82" height="82" viewBox="0 0 82 82" fill="none" xmlns="http://www.w3.org/2000/svg">
    <path d="M45.25 62.875H56.625L26.9375 81.625L36.75 62.875H25.375L32.5312 55.0625H50.1562L45.25 62.875ZM72.8438 23.8438C71.5164 23.2052 70.1073 22.753 68.6562 22.5C68.214 21.126 67.4604 19.8727 66.4542 18.8377C65.448 17.8027 64.2165 17.0141 62.8555 16.5332C61.4945 16.0523 60.0408 15.8922 58.6078 16.0653C57.1748 16.2384 55.8011 16.7401 54.5937 17.5313C51.8575 14.2585 48.2155 11.8668 44.125 10.6563C43.0339 10.3179 41.915 10.0774 40.7812 9.93751C37.436 9.50005 34.0348 9.84231 30.8437 10.9375C28.9525 11.6992 27.1239 12.6082 25.375 13.6563C22.8114 15.4732 20.6778 17.8308 19.125 20.5625C18.7713 21.1604 18.448 21.7758 18.1562 22.4063C17.4444 22.2829 16.7221 22.2306 16 22.25C15.0243 22.2476 14.0508 22.3418 13.0937 22.5313C9.94719 23.1172 7.05647 24.6553 4.8125 26.9375C2.65684 29.1367 1.19911 31.9239 0.622397 34.9489C0.0456863 37.9739 0.375718 41.1019 1.57104 43.9399C2.76636 46.778 4.77367 49.1996 7.34082 50.9004C9.90798 52.6013 12.9205 53.5057 16 53.5H66C69.528 53.493 72.9497 52.2922 75.7084 50.0931C78.4671 47.8941 80.4005 44.8261 81.1937 41.3885C81.987 37.9509 81.5936 34.3459 80.0775 31.1604C78.5614 27.9748 76.0119 25.396 72.8438 23.8438V23.8438ZM3.5 25.9375C6.03721 23.3591 9.3135 21.6336 12.875 21C14.2958 20.7322 15.7439 20.6378 17.1875 20.7188L17.7187 19.7813C19.4305 16.8315 21.7793 14.3012 24.5937 12.375C26.438 11.2495 28.3716 10.2775 30.375 9.46876C33.783 8.28117 37.4215 7.90663 41 8.37501C42.2293 8.52622 43.4425 8.78769 44.625 9.15626L45.25 9.37501C43.7833 6.57451 41.57 4.23466 38.8553 2.61465C36.1406 0.994634 33.0304 0.157687 29.8693 0.196513C26.7082 0.235339 23.6196 1.14842 20.9455 2.83463C18.2714 4.52083 16.1162 6.91433 14.7187 9.75001C14.1051 9.70223 13.4887 9.70223 12.875 9.75001C9.55979 9.75001 6.38037 11.067 4.03616 13.4112C1.69196 15.7554 0.374999 18.9348 0.374999 22.25C0.385252 24.3018 0.900407 26.3195 1.875 28.125C2.35835 27.3543 2.9017 26.6228 3.5 25.9375V25.9375Z" fill="url(#paint0_linear_54_154)"/>
    <defs>
    <linearGradient id="paint0_linear_54_154" x1="0.374999" y1="41" x2="81.625" y2="41" gradientUnits="userSpaceOnUse">
    <stop stop-color="white"/>
    <stop offset="0.0001" stop-color="white"/>
    <stop offset="0.422398" stop-color="#387A9F"/>
    <stop offset="1" stop-color="#100DAA"/>
    </linearGradient>
    </defs>
    </svg>
    
    