<svg width="47" height="50" viewBox="0 0 47 50" fill="none" xmlns="http://www.w3.org/2000/svg">
    <path d="M44.2854 37.075L39.5417 31.775C38.5213 30.7169 37.2342 30.0158 35.8457 29.7619C34.4573 29.5079 33.0309 29.7128 31.75 30.35L29.6875 28.1C32.1179 24.5573 33.2279 20.1417 32.7939 15.7421C32.36 11.3425 30.4144 7.28557 27.3487 4.38801C24.283 1.49044 20.325 -0.0326015 16.2713 0.125467C12.2177 0.283536 8.36938 2.11098 5.50118 5.23993C2.63298 8.36888 0.957817 12.567 0.812921 16.9892C0.668024 21.4113 2.06415 25.7292 4.72025 29.0736C7.37634 32.4179 11.0952 34.5405 15.1282 35.0139C19.1611 35.4873 23.2088 34.2764 26.4562 31.625L28.4958 33.85C27.8429 35.2491 27.6089 36.8364 27.8268 38.3883C28.0447 39.9401 28.7035 41.3783 29.7104 42.5L34.5687 47.8C35.8578 49.2045 37.6052 49.9934 39.4271 49.9934C41.249 49.9934 42.9963 49.2045 44.2854 47.8C44.9402 47.1015 45.4605 46.2674 45.8157 45.3465C46.171 44.4256 46.3539 43.4366 46.3539 42.4375C46.3539 41.4384 46.171 40.4494 45.8157 39.5285C45.4605 38.6077 44.9402 37.7735 44.2854 37.075ZM24.8521 26.475C23.2485 28.22 21.2067 29.4074 18.9848 29.8871C16.7629 30.3669 14.4605 30.1175 12.3685 29.1705C10.2764 28.2235 8.48857 26.6213 7.2308 24.5664C5.97302 22.5114 5.30173 20.0959 5.30173 17.625C5.30173 15.1541 5.97302 12.7386 7.2308 10.6837C8.48857 8.62873 10.2764 7.02656 12.3685 6.07954C14.4605 5.13252 16.7629 4.88313 18.9848 5.36288C21.2067 5.84264 23.2485 7.03001 24.8521 8.77501C25.9192 9.93615 26.7658 11.3155 27.3434 12.8342C27.9211 14.3528 28.2184 15.9808 28.2184 17.625C28.2184 19.2692 27.9211 20.8972 27.3434 22.4158C26.7658 23.9345 25.9192 25.3139 24.8521 26.475ZM41.0542 44.15C40.8411 44.3843 40.5877 44.5703 40.3084 44.6972C40.0291 44.8242 39.7296 44.8895 39.4271 44.8895C39.1246 44.8895 38.825 44.8242 38.5458 44.6972C38.2665 44.5703 38.013 44.3843 37.8 44.15L32.9417 38.85C32.7269 38.6176 32.5564 38.3411 32.44 38.0365C32.3237 37.7318 32.2638 37.405 32.2638 37.075C32.2638 36.745 32.3237 36.4182 32.44 36.1136C32.5564 35.8089 32.7269 35.5324 32.9417 35.3C33.1547 35.0657 33.4082 34.8797 33.6874 34.7528C33.9667 34.6259 34.2662 34.5605 34.5687 34.5605C34.8713 34.5605 35.1708 34.6259 35.4501 34.7528C35.7293 34.8797 35.9828 35.0657 36.1958 35.3L41.0542 40.6C41.269 40.8324 41.4394 41.1089 41.5558 41.4136C41.6721 41.7182 41.732 42.045 41.732 42.375C41.732 42.705 41.6721 43.0318 41.5558 43.3364C41.4394 43.6411 41.269 43.9176 41.0542 44.15Z" fill="url(#paint0_linear_74_140)"/>
    <defs>
    <linearGradient id="paint0_linear_74_140" x1="23.5783" y1="0.114288" x2="23.5783" y2="49.9934" gradientUnits="userSpaceOnUse">
    <stop stop-color="#E43FFF"/>
    <stop offset="1" stop-color="white"/>
    </linearGradient>
    </defs>
    </svg>
    