<svg width="55" height="60" viewBox="0 0 55 60" fill="none" xmlns="http://www.w3.org/2000/svg">
    <path d="M48.2854 42.075L43.5417 36.775C42.5213 35.7169 41.2342 35.0158 39.8457 34.7619C38.4573 34.5079 37.0309 34.7128 35.75 35.35L33.6875 33.1C36.1179 29.5573 37.2279 25.1417 36.7939 20.7421C36.36 16.3425 34.4144 12.2856 31.3487 9.38801C28.283 6.49044 24.325 4.9674 20.2713 5.12547C16.2177 5.28354 12.3694 7.11098 9.50118 10.2399C6.63298 13.3689 4.95782 17.567 4.81292 21.9892C4.66802 26.4113 6.06415 30.7292 8.72025 34.0736C11.3763 37.4179 15.0952 39.5405 19.1282 40.0139C23.1611 40.4873 27.2088 39.2764 30.4562 36.625L32.4958 38.85C31.8429 40.2491 31.6089 41.8364 31.8268 43.3883C32.0447 44.9401 32.7035 46.3783 33.7104 47.5L38.5687 52.8C39.8578 54.2045 41.6052 54.9934 43.4271 54.9934C45.249 54.9934 46.9963 54.2045 48.2854 52.8C48.9402 52.1015 49.4605 51.2674 49.8157 50.3465C50.171 49.4256 50.3539 48.4366 50.3539 47.4375C50.3539 46.4384 50.171 45.4494 49.8157 44.5285C49.4605 43.6077 48.9402 42.7735 48.2854 42.075ZM28.8521 31.475C27.2485 33.22 25.2067 34.4074 22.9848 34.8871C20.7629 35.3669 18.4605 35.1175 16.3685 34.1705C14.2764 33.2235 12.4886 31.6213 11.2308 29.5664C9.97302 27.5114 9.30173 25.0959 9.30173 22.625C9.30173 20.1541 9.97302 17.7386 11.2308 15.6837C12.4886 13.6287 14.2764 12.0266 16.3685 11.0795C18.4605 10.1325 20.7629 9.88313 22.9848 10.3629C25.2067 10.8426 27.2485 12.03 28.8521 13.775C29.9192 14.9361 30.7658 16.3155 31.3434 17.8342C31.9211 19.3528 32.2184 20.9808 32.2184 22.625C32.2184 24.2692 31.9211 25.8972 31.3434 27.4158C30.7658 28.9345 29.9192 30.3139 28.8521 31.475ZM45.0542 49.15C44.8411 49.3843 44.5877 49.5703 44.3084 49.6972C44.0291 49.8242 43.7296 49.8895 43.4271 49.8895C43.1246 49.8895 42.825 49.8242 42.5458 49.6972C42.2665 49.5703 42.013 49.3843 41.8 49.15L36.9417 43.85C36.7269 43.6176 36.5564 43.3411 36.44 43.0365C36.3237 42.7318 36.2638 42.405 36.2638 42.075C36.2638 41.745 36.3237 41.4182 36.44 41.1136C36.5564 40.8089 36.7269 40.5324 36.9417 40.3C37.1547 40.0657 37.4082 39.8797 37.6874 39.7528C37.9667 39.6259 38.2662 39.5605 38.5687 39.5605C38.8713 39.5605 39.1708 39.6259 39.4501 39.7528C39.7293 39.8797 39.9828 40.0657 40.1958 40.3L45.0542 45.6C45.269 45.8324 45.4394 46.1089 45.5558 46.4136C45.6721 46.7182 45.732 47.045 45.732 47.375C45.732 47.705 45.6721 48.0318 45.5558 48.3364C45.4394 48.6411 45.269 48.9176 45.0542 49.15Z" fill="url(#paint0_linear_95_139)"/>
    <defs>
    <linearGradient id="paint0_linear_95_139" x1="27.5783" y1="5.11429" x2="27.5783" y2="54.9934" gradientUnits="userSpaceOnUse">
    <stop stop-color="#fff"/>
    <stop offset="1" stop-color="white"/>
    </linearGradient>
    </defs>
    </svg>
    
    