<svg xmlns="http://www.w3.org/2000/svg" viewBox="0 0 512 512"><path fill="#1886d1" d="M9,361.46A7.5,7.5,0,0,1,2.61,350c28.07-45.61,63.16-78.62,104.29-98.11,31.9-15.12,66.52-21.86,102.9-20,23.49,1.17,50.11,5.38,75.86,9.45,41.21,6.51,83.83,13.25,115.55,8.13,42.7-6.88,85.12-18.61,93.87-78.38,2.07-14.12-3.62-31.6-14.83-45.63-10.85-13.57-25-21.67-39.92-22.81C419.15,101,404.09,113.52,390,144.46a7.5,7.5,0,0,1-13.65-6.22c11.39-25,29.1-53.34,65.15-50.57,19.09,1.46,37,11.55,50.49,28.4,13.73,17.17,20.61,39.07,18,57.17-4.57,31.23-17.6,53.7-39.83,68.7-19.91,13.43-44.79,18.82-66.49,22.32-34.09,5.5-77.9-1.43-120.28-8.12-26.53-4.19-51.58-8.15-74.27-9.29-55.47-2.77-134.1,14.24-193.67,111A7.5,7.5,0,0,1,9,361.46Z"/><path fill="#1886d1" d="M360.7 424.56c-20 0-41.73-12.91-55.43-34.42a7.5 7.5 0 1 1 12.65-8.06c15 23.59 38.84 31.48 53.19 25.48 17.61-7.37 23.49-37.1 16.62-56.8-14.31-41-92.94-52.88-141.57-48-65.48 6.62-119.33 37.11-147.75 83.65a7.5 7.5 0 1 1-12.8-7.82c30.88-50.58 88.85-83.66 159-90.75 29.49-3 63.45-.14 90.86 7.61 35.44 10 58.39 27.42 66.38 50.34 8.28 23.73 2.77 64-25 75.58A41.82 41.82 0 0 1 360.7 424.56zM9 272.56a7.5 7.5 0 0 1-5.91-12.11c.82-1 20.43-25.89 60.15-51.35 36.48-23.38 97.59-51.67 181.6-53.67H245a7.5 7.5 0 0 1 .17 15c-80.21 1.9-138.51 28.75-173.29 50.93-37.78 24.09-56.81 48.08-57 48.32A7.49 7.49 0 0 1 9 272.56z"/></svg>