<svg width="100" height="100" viewBox="0 0 100 100" fill="none" xmlns="http://www.w3.org/2000/svg">
    <path fill-rule="evenodd" clip-rule="evenodd" d="M50 19.9156C48.1059 19.3207 46.0904 19 44 19C32.9543 19 24 27.9543 24 39C24 50.0457 32.9543 59 44 59C46.0904 59 48.1059 58.6793 50 58.0844V19.9156ZM63 45.2623C63.6489 43.2924 64 41.1872 64 39C64 36.8128 63.6489 34.7076 63 32.7377V45.2623Z" fill="#E0C53A"/>
    <path d="M67.4161 61.447L67 22H62.547L62.9631 61.447C59.1281 62.441 56.2841 65.893 56.2841 70.037C56.2841 74.955 60.2721 78.942 65.1901 78.942C70.1081 78.942 74.0961 74.955 74.0961 70.037C74.0951 65.894 71.2501 62.441 67.4161 61.447Z" fill="#FF0F00"/>
    <path d="M76.3211 56.1569V23.2829C76.3211 17.1349 71.3381 12.1509 65.1891 12.1509C59.0401 12.1509 54.0571 17.1339 54.0571 23.2829V56.1569C49.9891 59.4229 47.3781 64.4279 47.3781 70.0369C47.3781 79.8579 55.3681 87.8479 65.1891 87.8479C75.0081 87.8479 83.0001 79.8579 83.0001 70.0369C83.0001 64.4279 80.3871 59.4229 76.3211 56.1569ZM65.1891 83.3959C57.8121 83.3959 51.8311 77.4149 51.8311 70.0379C51.8311 65.0959 54.5191 60.7929 58.5101 58.4799V23.2829C58.5101 19.5999 61.5061 16.6039 65.1891 16.6039C68.8721 16.6039 71.868 19.5999 71.868 23.2829V58.4789C75.858 60.7919 78.5471 65.0949 78.5471 70.0369C78.5471 77.4149 72.5641 83.3959 65.1891 83.3959Z" fill="#231F20"/>
    <rect x="34.8057" y="4.59644" width="5" height="13" transform="rotate(-11 34.8057 4.59644)" fill="#E0C63A"/>
    <rect x="10.8647" y="57.9705" width="5" height="13" transform="rotate(-123.5 10.8647 57.9705)" fill="#E0C63A"/>
    <rect x="21.7389" y="26.5979" width="5" height="13" transform="rotate(120.5 21.7389 26.5979)" fill="#E0C63A"/>
    <rect x="32.8008" y="61" width="5" height="13" transform="rotate(17 32.8008 61)" fill="#E0C63A"/>
    </svg>
    