<svg width="100" height="100" viewBox="0 0 100 100" fill="none" xmlns="http://www.w3.org/2000/svg">
    <path d="M52.132 64.2961V44.8491H47.679V64.2961C43.844 65.2901 41 68.7421 41 72.8861C41 77.8041 44.988 81.7911 49.906 81.7911C54.824 81.7911 58.812 77.8041 58.812 72.8861C58.811 68.7431 55.966 65.2901 52.132 64.2961Z" fill="#FF993B"/>
    <path d="M60.943 59.006V26.132C60.943 19.984 55.96 15 49.811 15C43.662 15 38.679 19.983 38.679 26.132V59.006C34.611 62.272 32 67.277 32 72.886C32 82.707 39.99 90.697 49.811 90.697C59.63 90.697 67.622 82.707 67.622 72.886C67.622 67.277 65.009 62.272 60.943 59.006ZM49.811 86.245C42.434 86.245 36.453 80.264 36.453 72.887C36.453 67.945 39.141 63.642 43.132 61.329V26.132C43.132 22.449 46.128 19.453 49.811 19.453C53.494 19.453 56.49 22.449 56.49 26.132V61.328C60.48 63.641 63.169 67.944 63.169 72.886C63.169 80.264 57.186 86.245 49.811 86.245Z" fill="#231F20"/>
    </svg>
    