<svg xmlns="http://www.w3.org/2000/svg" width="100" height="100" enable-background="new 0 0 100 100" viewBox="0 0 100 100"><polygon fill="#231F20" points="40.699 43.849 49.604 49.021 49.604 43.873 42.96 40.014 49.604 36.281 49.604 31.176 40.699 36.176 40.699 25.51 45.151 25.51 45.151 21.057 40.699 21.057 40.699 16.604 36.246 16.604 36.246 21.057 31.793 21.057 31.793 25.51 36.246 25.51 36.246 36.113 27.078 30.789 29.312 26.938 25.462 24.703 23.227 28.554 19.376 26.316 17.139 30.167 20.987 32.402 18.752 36.255 22.605 38.49 24.84 34.639 33.985 39.951 24.764 45.127 22.583 41.247 18.7 43.425 20.883 47.308 17 49.491 19.181 53.372 23.062 51.191 25.245 55.075 29.128 52.892 26.945 49.011 36.246 43.786 36.246 54.453 31.793 54.453 31.793 58.906 36.246 58.906 36.246 63.358 40.699 63.358 40.699 58.906 45.151 58.906 45.151 54.453 40.699 54.453"/><path fill="#64C5F0" d="M67.416,61.447v-6.995h-4.453v6.995c-3.835,0.994-6.679,4.446-6.679,8.59c0,4.918,3.988,8.905,8.906,8.905s8.906-3.987,8.906-8.905C74.095,65.894,71.25,62.441,67.416,61.447"/><path fill="#231F20" d="M76.321,56.157V23.283c0-6.148-4.983-11.132-11.132-11.132s-11.132,4.983-11.132,11.132v32.874c-4.068,3.266-6.679,8.271-6.679,13.88c0,9.821,7.99,17.811,17.811,17.811c9.819,0,17.811-7.99,17.811-17.811C83,64.428,80.387,59.423,76.321,56.157 M65.189,83.396c-7.377,0-13.358-5.981-13.358-13.358c0-4.942,2.688-9.245,6.679-11.558V23.283c0-3.683,2.996-6.679,6.679-6.679s6.679,2.996,6.679,6.679v35.196c3.99,2.313,6.679,6.616,6.679,11.558C78.547,77.415,72.564,83.396,65.189,83.396"/></svg>