<svg xmlns="http://www.w3.org/2000/svg" data-name="Layer 1" viewBox="0 0 512 512"><g data-name="&lt;Group&gt;"><path fill="#00acea" d="M37,187H263.923a61.7,61.7,0,0,0-.172-123.4,10,10,0,1,0,0,20,41.7,41.7,0,0,1,.172,83.4H37a10,10,0,0,0,0,20Z" data-name="&lt;Path&gt;"/><path fill="#00acea" d="M37 233H376.941a61.428 61.428 0 1 0-.171-122.856 10 10 0 0 0 0 20A41.428 41.428 0 1 1 376.941 213H37a10 10 0 0 0 0 20zM423.666 269H37a10 10 0 0 0 0 20H423.666a41.432 41.432 0 1 1 .012 82.864 10 10 0 0 0 0 20A61.432 61.432 0 1 0 423.666 269z" data-name="&lt;Path&gt;"/><path fill="#00acea" d="M225.885,326H37a10,10,0,0,0,0,20H225.885a41.31,41.31,0,1,1,.011,82.618,10,10,0,0,0,0,20A61.31,61.31,0,1,0,225.885,326Z" data-name="&lt;Path&gt;"/></g></svg>