<svg xmlns="http://www.w3.org/2000/svg" data-name="Layer 1" viewBox="0 0 512 512"><g data-name="&lt;Group&gt;"><g data-name="&lt;Group&gt;"><circle cx="451.5" cy="349.5" r="27" fill="#00efd1" data-name="&lt;Group&gt;"/><circle cx="340.38" cy="181.62" r="20.12" fill="#00acea" data-name="&lt;Group&gt;"/><circle cx="215.5" cy="367.5" r="22" fill="#00acea" data-name="&lt;Group&gt;"/><circle cx="71.5" cy="143.5" r="21" fill="#00efd1" data-name="&lt;Group&gt;"/></g><g data-name="&lt;Group&gt;"><path fill="#083863" d="M448.41,220.72a43.269,43.269,0,0,0-43.16-43.28,8,8,0,0,0,0,16,27.28,27.28,0,0,1-.21,54.56H33a8,8,0,0,0,0,16H405.04A43.374,43.374,0,0,0,448.41,220.72Z" data-name="&lt;Path&gt;"/><path fill="#083863" d="M25 214a8 8 0 0 0 8 8H235.61a32.2 32.2 0 1 0-.15-64.4 8 8 0 0 0 0 16 16.355 16.355 0 0 1 16.47 16.2A16.088 16.088 0 0 1 235.61 206H33A8 8 0 0 0 25 214zM313.26 292H33a8 8 0 0 0 0 16H313.26a27.258 27.258 0 0 1 27.41 27.04 26.791 26.791 0 0 1-27.12 27.04 8 8 0 0 0 0 16 43.041 43.041 0 1 0-.29-86.08z" data-name="&lt;Path&gt;"/><path fill="#083863" d="M100.5 143.5a29 29 0 1 0-29 29A29.032 29.032 0 0 0 100.5 143.5zm-42 0a13 13 0 1 1 13 13A13.015 13.015 0 0 1 58.5 143.5zM215.5 337.5a30 30 0 1 0 30 30A30.034 30.034 0 0 0 215.5 337.5zm0 44a14 14 0 1 1 14-14A14.015 14.015 0 0 1 215.5 381.5zM451.5 314.5a35 35 0 1 0 35 35A35.04 35.04 0 0 0 451.5 314.5zm0 54a19 19 0 1 1 19-19A19.021 19.021 0 0 1 451.5 368.5zM312.26 181.62a28.12 28.12 0 1 0 28.12-28.12A28.152 28.152 0 0 0 312.26 181.62zm40.24 0a12.12 12.12 0 1 1-12.12-12.12A12.134 12.134 0 0 1 352.5 181.62z" data-name="&lt;Compound Path&gt;"/></g></g></svg>