<svg width="100" height="100" viewBox="0 0 100 100" fill="none" xmlns="http://www.w3.org/2000/svg">
    <path d="M88.1836 73.5352C91.096 73.5352 93.457 71.1742 93.457 68.2617C93.457 65.3493 91.096 62.9883 88.1836 62.9883C85.2712 62.9883 82.9102 65.3493 82.9102 68.2617C82.9102 71.1742 85.2712 73.5352 88.1836 73.5352Z" fill="#00EFD1"/>
    <path d="M66.4805 39.4023C68.6508 39.4023 70.4102 37.643 70.4102 35.4727C70.4102 33.3023 68.6508 31.543 66.4805 31.543C64.3102 31.543 62.5508 33.3023 62.5508 35.4727C62.5508 37.643 64.3102 39.4023 66.4805 39.4023Z" fill="#00ACEA"/>
    <path d="M42.0898 76.0742C44.4629 76.0742 46.3867 74.1504 46.3867 71.7773C46.3867 69.4042 44.4629 67.4805 42.0898 67.4805C39.7167 67.4805 37.793 69.4042 37.793 71.7773C37.793 74.1504 39.7167 76.0742 42.0898 76.0742Z" fill="#00ACEA"/>
    <path d="M13.9648 32.1289C16.2301 32.1289 18.0664 30.2926 18.0664 28.0273C18.0664 25.7621 16.2301 23.9258 13.9648 23.9258C11.6996 23.9258 9.86328 25.7621 9.86328 28.0273C9.86328 30.2926 11.6996 32.1289 13.9648 32.1289Z" fill="#00EFD1"/>
    <path d="M87.5801 43.1094C87.5807 40.8713 86.6935 38.7245 85.1131 37.1398C83.5328 35.555 81.3884 34.6619 79.1504 34.6562C78.736 34.6562 78.3386 34.8209 78.0455 35.1139C77.7525 35.4069 77.5879 35.8043 77.5879 36.2188C77.5879 36.6332 77.7525 37.0306 78.0455 37.3236C78.3386 37.6166 78.736 37.7812 79.1504 37.7812C80.5635 37.7867 81.9166 38.3533 82.9119 39.3563C83.9073 40.3594 84.4634 41.7168 84.458 43.1299C84.4526 44.543 83.886 45.8961 82.8829 46.8914C81.8799 47.8868 80.5225 48.4429 79.1094 48.4375H6.44531C6.03091 48.4375 5.63348 48.6021 5.34046 48.8951C5.04743 49.1882 4.88281 49.5856 4.88281 50C4.88281 50.4144 5.04743 50.8118 5.34046 51.1049C5.63348 51.3979 6.03091 51.5625 6.44531 51.5625H79.1094C81.3528 51.5623 83.5046 50.6722 85.0926 49.0875C86.6806 47.5028 87.5752 45.3528 87.5801 43.1094V43.1094Z" fill="#083863"/>
    <path d="M4.88281 41.7969C4.88281 42.2113 5.04743 42.6087 5.34046 42.9017C5.63348 43.1948 6.03091 43.3594 6.44531 43.3594H46.0176C46.8435 43.3575 47.6609 43.1929 48.4232 42.8751C49.1855 42.5572 49.8777 42.0924 50.4603 41.507C51.043 40.9217 51.5046 40.2273 51.8189 39.4635C52.1331 38.6998 52.2939 37.8816 52.292 37.0557C52.2901 36.2298 52.1255 35.4124 51.8077 34.6501C51.4898 33.8878 51.025 33.1956 50.4396 32.6129C49.8543 32.0303 49.1599 31.5687 48.3961 31.2544C47.6324 30.9401 46.8142 30.7793 45.9883 30.7813C45.5739 30.7813 45.1765 30.9459 44.8834 31.2389C44.5904 31.5319 44.4258 31.9294 44.4258 32.3438C44.4258 32.7582 44.5904 33.1556 44.8834 33.4486C45.1765 33.7416 45.5739 33.9063 45.9883 33.9063C46.8341 33.9003 47.6478 34.23 48.2509 34.8232C48.8539 35.4164 49.1971 36.2245 49.2051 37.0703C49.208 37.4886 49.1274 37.9033 48.968 38.2901C48.8086 38.6768 48.5735 39.0279 48.2766 39.3226C47.9797 39.6173 47.627 39.8497 47.2391 40.0063C46.8511 40.1629 46.4359 40.2404 46.0176 40.2344H6.44531C6.03091 40.2344 5.63348 40.399 5.34046 40.692C5.04743 40.9851 4.88281 41.3825 4.88281 41.7969V41.7969ZM61.1836 57.0313H6.44531C6.03091 57.0313 5.63348 57.1959 5.34046 57.4889C5.04743 57.7819 4.88281 58.1794 4.88281 58.5938C4.88281 59.0082 5.04743 59.4056 5.34046 59.6986C5.63348 59.9917 6.03091 60.1563 6.44531 60.1563H61.1836C62.5934 60.1484 63.9487 60.6999 64.9523 61.69C65.9559 62.6801 66.5259 64.0278 66.5371 65.4375C66.5436 66.1342 66.411 66.8252 66.1469 67.4699C65.8828 68.1146 65.4926 68.7001 64.9993 69.192C64.5059 69.684 63.9193 70.0724 63.2738 70.3346C62.6283 70.5967 61.9369 70.7274 61.2402 70.7188C60.8258 70.7188 60.4284 70.8834 60.1354 71.1764C59.8424 71.4694 59.6777 71.8669 59.6777 72.2813C59.6777 72.6957 59.8424 73.0931 60.1354 73.3861C60.4284 73.6791 60.8258 73.8438 61.2402 73.8438C62.3484 73.8466 63.4461 73.6303 64.4704 73.2074C65.4946 72.7844 66.4251 72.1631 67.2084 71.3792C67.9917 70.5953 68.6122 69.6643 69.0343 68.6397C69.4565 67.6151 69.6719 66.5172 69.6681 65.409C69.6644 64.3009 69.4416 63.2044 69.0126 62.1827C68.5835 61.161 67.9568 60.2342 67.1682 59.4556C66.3797 58.677 65.445 58.062 64.418 57.6459C63.3909 57.2299 62.2917 57.021 61.1836 57.0313V57.0313Z" fill="#083863"/>
    <path d="M19.6289 28.0273C19.6289 26.9071 19.2967 25.812 18.6743 24.8806C18.052 23.9491 17.1674 23.2231 16.1324 22.7944C15.0974 22.3657 13.9586 22.2536 12.8598 22.4721C11.7611 22.6907 10.7519 23.2301 9.95975 24.0222C9.16762 24.8144 8.62817 25.8236 8.40962 26.9223C8.19107 28.0211 8.30324 29.1599 8.73193 30.1949C9.16063 31.2299 9.88661 32.1145 10.8181 32.7368C11.7495 33.3592 12.8446 33.6914 13.9648 33.6914C15.4665 33.6898 16.9063 33.0925 17.9681 32.0306C19.03 30.9688 19.6273 29.529 19.6289 28.0273ZM11.4258 28.0273C11.4258 27.5252 11.5747 27.0343 11.8537 26.6167C12.1327 26.1992 12.5292 25.8737 12.9932 25.6816C13.4571 25.4894 13.9677 25.4391 14.4602 25.5371C14.9527 25.635 15.4051 25.8769 15.7602 26.232C16.1153 26.5871 16.3571 27.0395 16.4551 27.532C16.5531 28.0245 16.5028 28.535 16.3106 28.999C16.1185 29.463 15.793 29.8595 15.3755 30.1385C14.9579 30.4175 14.467 30.5664 13.9648 30.5664C13.2917 30.5656 12.6463 30.2979 12.1703 29.8219C11.6943 29.3459 11.4266 28.7005 11.4258 28.0273ZM42.0898 65.918C40.931 65.918 39.7981 66.2616 38.8345 66.9055C37.871 67.5493 37.12 68.4644 36.6765 69.5351C36.233 70.6057 36.117 71.7838 36.3431 72.9204C36.5691 74.0571 37.1272 75.1011 37.9466 75.9205C38.7661 76.74 39.8101 77.298 40.9467 77.5241C42.0833 77.7502 43.2615 77.6342 44.3321 77.1907C45.4028 76.7472 46.3179 75.9962 46.9617 75.0326C47.6056 74.0691 47.9492 72.9362 47.9492 71.7773C47.9475 70.2239 47.3296 68.7345 46.2311 67.6361C45.1326 66.5376 43.6433 65.9197 42.0898 65.918V65.918ZM42.0898 74.5117C41.549 74.5117 41.0204 74.3513 40.5707 74.0509C40.121 73.7504 39.7706 73.3234 39.5636 72.8237C39.3567 72.3241 39.3025 71.7743 39.408 71.2439C39.5135 70.7135 39.7739 70.2263 40.1563 69.8438C40.5388 69.4614 41.026 69.201 41.5564 69.0955C42.0868 68.99 42.6366 69.0441 43.1362 69.2511C43.6359 69.4581 44.0629 69.8085 44.3634 70.2582C44.6638 70.7079 44.8242 71.2365 44.8242 71.7773C44.8234 72.5023 44.5351 73.1974 44.0225 73.71C43.5099 74.2226 42.8148 74.5109 42.0898 74.5117V74.5117ZM88.1836 61.4258C86.8316 61.4258 85.5099 61.8267 84.3857 62.5778C83.2616 63.329 82.3854 64.3966 81.868 65.6457C81.3506 66.8948 81.2152 68.2693 81.479 69.5953C81.7428 70.9214 82.3938 72.1394 83.3498 73.0955C84.3059 74.0515 85.5239 74.7025 86.85 74.9663C88.176 75.2301 89.5505 75.0947 90.7996 74.5773C92.0487 74.0599 93.1163 73.1837 93.8675 72.0596C94.6186 70.9354 95.0195 69.6137 95.0195 68.2617C95.0175 66.4493 94.2966 64.7118 93.015 63.4303C91.7335 62.1487 89.9959 61.4278 88.1836 61.4258ZM88.1836 71.9727C87.4496 71.9727 86.7322 71.755 86.1219 71.3472C85.5116 70.9395 85.036 70.3599 84.7551 69.6818C84.4743 69.0037 84.4008 68.2576 84.5439 67.5377C84.6871 66.8179 85.0406 66.1567 85.5596 65.6377C86.0785 65.1187 86.7398 64.7653 87.4596 64.6221C88.1795 64.4789 88.9256 64.5524 89.6037 64.8333C90.2818 65.1141 90.8613 65.5898 91.2691 66.2C91.6769 66.8103 91.8945 67.5278 91.8945 68.2617C91.8934 69.2456 91.5021 70.1888 90.8064 70.8845C90.1107 71.5802 89.1675 71.9716 88.1836 71.9727V71.9727ZM60.9883 35.4727C60.9883 36.5589 61.3104 37.6208 61.9139 38.524C62.5174 39.4271 63.3751 40.1311 64.3787 40.5468C65.3823 40.9625 66.4866 41.0712 67.5519 40.8593C68.6173 40.6474 69.5959 40.1243 70.364 39.3562C71.1321 38.5881 71.6552 37.6095 71.8671 36.5441C72.079 35.4787 71.9703 34.3745 71.5546 33.3709C71.1389 32.3673 70.4349 31.5096 69.5318 30.9061C68.6286 30.3026 67.5667 29.9805 66.4805 29.9805C65.0244 29.9821 63.6284 30.5613 62.5987 31.5909C61.5691 32.6205 60.9899 34.0165 60.9883 35.4727V35.4727ZM68.8476 35.4727C68.8476 35.9408 68.7088 36.3985 68.4487 36.7878C68.1886 37.1771 67.8189 37.4805 67.3863 37.6597C66.9538 37.8388 66.4778 37.8857 66.0186 37.7944C65.5595 37.703 65.1377 37.4776 64.8066 37.1465C64.4756 36.8155 64.2501 36.3937 64.1588 35.9345C64.0674 35.4753 64.1143 34.9993 64.2935 34.5668C64.4726 34.1342 64.776 33.7645 65.1653 33.5044C65.5546 33.2443 66.0123 33.1055 66.4805 33.1055C67.1081 33.1062 67.7097 33.3558 68.1535 33.7996C68.5973 34.2434 68.8469 34.8451 68.8476 35.4727V35.4727Z" fill="#083863"/>
    </svg>
    
    